# Blender 4.5.3 LTS
# www.blender.org
mtllib cessna.mtl
o cessna
v 4.250000 -0.750000 -0.500000
v 4.250000 -0.750000 0.500000
v 4.000000 0.250000 1.000000
v 3.750000 1.250000 0.500000
v 3.750000 1.250000 -0.500000
v 4.000000 0.250000 -1.000000
v 0.500000 -0.750000 -0.250000
v 0.500000 -0.750000 0.250000
v 0.500000 0.250000 0.750000
v 1.000000 1.000000 0.500000
v 1.000000 1.000000 -0.500000
v 0.500000 0.250000 -0.750000
v 5.500000 -0.500000 -0.500000
v 5.500000 -0.500000 0.500000
v 5.750000 0.250000 0.750000
v 5.500000 0.750000 0.500000
v 5.500000 0.750000 -0.500000
v 5.750000 0.250000 -0.750000
v -2.250000 0.000000 0.250000
v -2.250000 -0.000000 -0.250000
v -2.250000 0.500000 -0.250000
v -2.000000 1.500000 -0.250000
v -2.000000 1.500000 0.250000
v -2.250000 0.500000 0.250000
v -2.750000 0.000000 0.250000
v -2.750000 -0.000000 -0.250000
v -2.500000 0.500000 -0.250000
v -2.750000 2.500000 -0.000000
v -2.750000 2.500000 -0.000000
v -2.500000 0.500000 0.250000
v -3.500000 0.250000 -0.000000
v -3.500000 0.250000 -0.000000
v -3.250000 0.500000 -0.250000
v -3.750000 2.500000 -0.000000
v -3.750000 2.500000 -0.000000
v -3.250000 0.500000 0.250000
v 6.000000 -0.000000 -0.250000
v 6.000000 0.000000 0.250000
v 6.000000 0.250000 0.250000
v 6.000000 0.500000 -0.000000
v 6.000000 0.500000 -0.000000
v 6.000000 0.250000 -0.250000
v -3.445312 0.882812 -0.000000
v -2.445312 0.882812 -0.000000
v -2.500000 0.750000 -0.000000
v -3.500000 0.750000 -0.000000
v -3.445312 1.000000 -1.500000
v -2.945312 1.000000 -1.500000
v -2.750000 0.867187 -1.500000
v -3.500000 0.867187 -1.500000
v -3.445312 1.000000 1.500000
v -2.945312 1.000000 1.500000
v -2.750000 0.867188 1.500000
v -3.500000 0.867188 1.500000
v 3.500000 1.750000 0.250000
v 4.000000 1.500000 0.250000
v 4.250000 1.000000 0.500000
v 3.500000 1.000000 0.500000
v 3.500000 1.750000 -0.250000
v 4.000000 1.500000 -0.250000
v 4.250000 1.000000 -0.500000
v 3.500000 1.000000 -0.500000
v 1.750000 1.750000 -0.250000
v 1.750000 1.750000 0.250000
v 2.000000 1.000000 0.500000
v 2.000000 1.000000 -0.500000
v 1.000000 1.250000 -0.500000
v 1.000000 1.250000 0.500000
v 0.750000 1.000000 0.500000
v 0.750000 1.000000 -0.500000
v 2.250000 1.859375 0.500000
v 3.500000 1.859375 0.500000
v 3.500000 1.609375 4.500000
v 1.750000 1.609375 4.500000
v 2.250000 1.859375 -0.500000
v 3.500000 1.859375 -0.500000
v 3.500000 1.609375 -4.000000
v 1.750000 1.609375 -4.000000
v 2.250000 1.500000 4.500000
v 3.000000 1.500000 4.500000
v 3.000000 1.500000 -4.000000
v 2.250000 1.500000 -4.000000
v 3.000000 1.609375 -4.750000
v 3.500000 1.609375 -4.750000
v 2.750000 1.609375 -4.750000
v 2.750000 1.609375 -4.750000
v 2.750000 1.609375 5.000000
v 1.750000 1.609375 4.500000
v 3.500000 1.609375 5.000000
v 3.000000 1.609375 5.000000
v 3.250000 1.676777 -2.323224
v 3.250000 -0.250000 -0.396447
v 3.000000 -0.250000 -0.396447
v 3.000000 1.676777 -2.323224
v 3.250000 1.500000 -2.500000
v 3.250000 -0.426777 -0.573223
v 3.000000 -0.426777 -0.573223
v 3.000000 1.500000 -2.500000
v 3.250000 1.500000 2.500000
v 3.250000 -0.426777 0.573223
v 3.000000 -0.426777 0.573223
v 3.000000 1.500000 2.500000
v 3.250000 1.676777 2.323223
v 3.250000 -0.250000 0.396447
v 3.000000 -0.250000 0.396447
v 3.000000 1.676777 2.323223
v 6.093750 -0.500000 0.250000
v 6.093750 0.000000 0.750000
v 6.093750 0.500000 0.750000
v 6.093750 1.000000 0.250000
v 6.093750 1.000000 -0.250000
v 6.093750 0.500000 -0.750000
v 6.093750 -0.000000 -0.750000
v 6.093750 -0.500000 -0.250000
v 5.984375 -0.500000 0.250000
v 5.984375 0.000000 0.750000
v 5.984375 0.500000 0.750000
v 5.984375 1.000000 0.250000
v 5.984375 1.000000 -0.250000
v 5.984375 0.500000 -0.750000
v 5.984375 -0.000000 -0.750000
v 5.984375 -0.500000 -0.250000
v 2.000000 -0.500000 0.500000
v 1.750000 -0.500000 0.500000
v 1.750000 -1.000000 1.164063
v 2.000000 -1.000000 1.164063
v 2.000000 -0.250000 0.750000
v 1.750000 -0.250000 0.750000
v 1.750000 -1.000000 1.414063
v 2.000000 -1.000000 1.414063
v 2.500000 -1.250000 1.070313
v 1.500000 -1.250000 1.070313
v 1.500000 -1.250000 1.750000
v 2.500000 -1.250000 1.750000
v 2.500000 -1.406250 1.218750
v 1.500000 -1.406250 1.218750
v 1.500000 -1.406250 1.554688
v 2.500000 -1.406250 1.554688
v 2.000000 -1.656250 1.304688
v 1.750000 -1.656250 1.304688
v 1.750000 -1.656250 1.460938
v 2.000000 -1.656250 1.460938
v 3.000000 1.676777 -2.323224
v 3.000000 -0.250000 -0.396447
v 2.750000 -0.250000 -0.396447
v 2.750000 1.676777 -2.323224
v 3.000000 1.500000 -2.500000
v 3.000000 -0.426777 -0.573223
v 2.750000 -0.426777 -0.573223
v 2.750000 1.500000 -2.500000
v 4.250000 -0.500000 0.132813
v 4.500000 -0.250000 0.132813
v 5.000000 -1.000000 0.132813
v 4.750000 -1.000000 0.132813
v 4.250000 -0.500000 -0.117187
v 4.500000 -0.250000 -0.117187
v 5.000000 -1.000000 -0.117187
v 4.750000 -1.000000 -0.117187
v 4.500000 -1.250000 0.312500
v 5.500000 -1.250000 0.312500
v 5.500000 -1.250000 -0.367187
v 4.500000 -1.250000 -0.367187
v 4.500000 -1.406250 0.164063
v 5.500000 -1.406250 0.164063
v 5.500000 -1.406250 -0.171875
v 4.500000 -1.406250 -0.171875
v 4.750000 -1.640625 0.078125
v 5.000000 -1.640625 0.078125
v 5.000000 -1.640625 -0.078125
v 4.750000 -1.640625 -0.078125
v 1.750000 -0.500000 -0.500000
v 2.000000 -0.500000 -0.500000
v 2.000000 -1.000000 -1.164062
v 1.750000 -1.000000 -1.164062
v 1.750000 -0.250000 -0.750000
v 2.000000 -0.250000 -0.750000
v 2.000000 -1.000000 -1.414062
v 1.750000 -1.000000 -1.414062
v 1.500000 -1.250000 -1.070312
v 2.500000 -1.250000 -1.070312
v 2.500000 -1.250000 -1.750000
v 1.500000 -1.250000 -1.750000
v 1.500000 -1.406250 -1.218750
v 2.500000 -1.406250 -1.218750
v 2.500000 -1.406250 -1.554687
v 1.500000 -1.406250 -1.554687
v 1.750000 -1.640625 -1.304687
v 2.000000 -1.640625 -1.304687
v 2.000000 -1.640625 -1.460937
v 1.750000 -1.640625 -1.460937
vn -0.0591 -0.4582 0.8869
vn -0.0399 0.4389 0.8977
vn -0.0905 0.9959 -0.0000
vn -0.0666 0.3552 -0.9324
vn -0.0591 -0.4582 -0.8869
vn -0.0000 -1.0000 -0.0000
vn 0.1961 -0.9806 -0.0000
vn 0.1323 -0.3529 0.9263
vn 0.1231 0.4924 0.8616
vn 0.2747 0.9615 -0.0000
vn 0.1231 0.4924 -0.8616
vn 0.1323 -0.3529 -0.9263
vn -0.2631 -0.9648 -0.0000
vn -0.1789 -0.0000 -0.9839
vn -0.1749 0.0437 -0.9836
vn 0.1644 0.9864 -0.0000
vn -0.1749 0.0437 0.9836
vn -0.1789 -0.0000 0.9839
vn -0.0000 -0.0000 -1.0000
vn -0.1952 0.0976 -0.9759
vn -0.0000 -0.0000 1.0000
vn -0.1952 0.0976 0.9759
vn -0.4082 -0.4082 -0.8165
vn -0.0000 0.1240 -0.9923
vn -0.0000 0.1240 0.9923
vn -0.4082 -0.4082 0.8165
vn -0.7071 0.7071 -0.0000
vn 0.7071 -0.7071 -0.0000
vn 0.8944 -0.0000 0.4472
vn 0.7276 0.4851 0.4851
vn 0.7276 0.4851 -0.4851
vn 0.8944 -0.0000 -0.4472
vn 1.0000 -0.0000 -0.0000
vn -0.0000 0.9970 0.0779
vn -0.9243 0.3806 0.0297
vn 0.9094 -0.3745 -0.1808
vn -0.0000 -0.9970 -0.0779
vn -0.0000 0.9970 -0.0779
vn 0.5581 0.8208 0.1219
vn -0.0000 -0.9970 0.0779
vn -0.9243 0.3806 -0.0297
vn 0.1562 0.3123 0.9370
vn -0.0000 0.4472 -0.8944
vn 0.4472 0.8944 -0.0000
vn 0.8944 0.4472 -0.0000
vn -0.0000 1.0000 -0.0000
vn -0.0000 0.3162 0.9487
vn -0.0000 0.3162 -0.9487
vn -0.5547 0.8321 -0.0000
vn -0.0000 0.9981 0.0624
vn -0.0000 0.9975 -0.0712
vn -0.4472 0.8944 -0.0000
vn 0.2137 -0.9769 -0.0000
vn -0.2137 -0.9769 -0.0000
vn -0.0000 -0.9895 -0.1443
vn -0.1965 -0.8983 0.3930
vn -0.0000 -0.9769 0.2137
vn -0.0000 0.7071 0.7071
vn -0.0000 -0.7071 -0.7071
vn -0.0000 0.7071 -0.7071
vn -0.0000 -0.7071 0.7071
vn -1.0000 -0.0000 -0.0000
vn -0.0000 -0.7989 -0.6015
vn -0.0000 0.6629 0.7487
vn -0.0000 0.3511 -0.9363
vn -0.0000 0.8022 0.5970
vn -0.0000 -0.6887 -0.7250
vn -0.0000 -0.7809 0.6247
vn -0.0000 -0.3251 -0.9457
vn -0.7071 -0.7071 -0.0000
vn -0.0000 -0.3511 0.9363
vn 0.4472 -0.8944 -0.0000
vn 0.8321 0.5547 -0.0000
vn -0.0000 0.5836 0.8120
vn -0.0000 -0.6887 0.7250
vn -0.0000 -0.7809 -0.6247
vn -0.0000 -0.3443 0.9389
vn 0.4244 -0.9055 -0.0000
vn -0.0000 -0.3714 -0.9285
vn -0.6839 -0.7295 -0.0000
vn -0.0000 -0.7989 0.6015
vn -0.0000 0.6629 -0.7487
vn -0.0000 0.3511 0.9363
vn -0.0000 0.8022 -0.5970
vn -0.0638 -0.4463 0.8926
vn -0.0666 0.3552 0.9324
vn -0.0399 0.4389 -0.8977
vn -0.0638 -0.4463 -0.8926
vn 0.0857 -0.4284 0.8995
vn 0.1342 0.4698 0.8725
vn 0.1342 0.4698 -0.8725
vn 0.0857 -0.4284 -0.8995
vn -0.1211 -0.4439 -0.8878
vn -0.0236 0.3303 -0.9436
vn -0.0236 0.3303 0.9436
vn -0.1211 -0.4439 0.8878
vn 0.8000 0.6000 -0.0000
vn -0.3162 -0.9487 -0.0000
vn -0.9701 -0.2425 -0.0000
vn 0.7071 -0.4243 0.5657
vn 0.7428 0.5571 0.3714
vn 0.7428 0.5571 -0.3714
vn 0.7071 -0.4243 -0.5657
vn 0.5581 0.8208 -0.1219
vn 0.9094 -0.3745 0.1808
vn -0.0000 0.4472 0.8944
vn 0.1562 0.3123 -0.9370
vn 0.0851 0.3405 0.9364
vn 0.0851 0.3405 -0.9364
vn 0.2116 -0.9671 -0.1410
vn -0.2055 -0.9395 -0.2740
vn 0.2090 -0.9553 0.2090
vt 0.625000 0.875000
vt 0.750000 1.000000
vt 0.625000 1.000000
vt 0.750000 0.875000
vt 0.781250 0.812500
vt 0.718750 0.875000
vt 0.718750 0.812500
vt 0.781250 0.875000
vt 0.750000 0.937500
vt 0.625000 0.937500
vt 0.656250 0.875000
vt 0.718750 1.000000
vt 0.500000 0.875000
vt 0.375000 1.000000
vt 0.375000 0.875000
vt 0.500000 1.000000
vt 0.843750 1.000000
vt 0.750000 0.968750
vt 0.875000 1.000000
vt 0.656250 1.000000
vt 0.843750 0.875000
vt 0.875000 0.906250
vt 0.875000 0.968750
vt 0.781250 1.000000
vt 0.750000 0.906250
vt 0.875000 0.875000
s 0
usemtl cessna.mtl
f 3/1/1 8/2/1 2/3/1
f 10/1/2 3/2/2 4/3/2
f 11/1/3 4/2/3 5/3/3
f 11/4/4 6/3/4 12/1/4
f 7/1/5 6/2/5 1/3/5
f 8/1/6 1/2/6 2/3/6
f 2/5/7 13/6/7 14/7/7
f 3/5/8 14/6/8 15/7/8
f 16/7/9 3/8/9 15/6/9
f 5/5/10 16/6/10 17/7/10
f 6/5/11 17/6/11 18/7/11
f 13/7/12 6/8/12 18/6/12
f 7/5/13 19/6/13 20/7/13
f 12/5/14 20/6/14 21/7/14
f 22/7/15 12/8/15 21/6/15
f 10/5/16 22/6/16 23/7/16
f 9/5/17 23/6/17 24/7/17
f 19/7/18 9/8/18 24/6/18
f 20/5/6 25/6/6 26/7/6
f 27/7/19 20/8/19 26/6/19
f 22/5/20 27/6/20 28/7/20
f 29/7/21 22/8/21 28/6/21
f 30/7/22 23/8/22 29/6/22
f 19/5/21 30/6/21 25/7/21
f 32/7/21 25/8/21 31/6/21
f 33/7/23 26/8/23 32/6/23
f 28/5/24 33/6/24 34/7/24
f 35/7/21 28/8/21 34/6/21
f 36/7/25 29/8/25 35/6/25
f 25/5/26 36/6/26 31/7/26
f 36/9/27 33/10/27 32/11/27
f 14/5/28 37/6/28 38/7/28
f 15/5/29 38/6/29 39/7/29
f 16/5/30 39/6/30 40/7/30
f 41/7/21 16/8/21 40/6/21
f 42/7/31 17/8/31 41/6/31
f 37/7/32 18/8/32 42/6/32
f 42/9/33 41/12/33 39/10/33
f 50/13/19 48/14/19 49/15/19
f 43/14/34 48/13/34 47/16/34
f 50/15/35 43/16/35 47/14/35
f 49/13/36 44/14/36 45/15/36
f 49/15/37 46/16/37 50/14/37
f 52/15/38 43/16/38 51/14/38
f 53/15/39 44/16/39 52/14/39
f 46/13/40 53/14/40 54/15/40
f 43/13/41 54/14/41 51/15/41
f 54/15/21 52/16/21 51/14/21
f 58/15/42 56/16/42 55/14/42
f 62/13/43 60/14/43 61/15/43
f 56/15/44 59/16/44 55/14/44
f 61/13/45 56/14/45 57/15/45
f 61/15/6 58/16/6 62/14/6
f 55/13/46 63/14/46 64/15/46
f 65/15/47 55/16/47 64/14/47
f 62/13/6 65/14/6 66/15/6
f 59/13/48 66/14/48 63/15/48
f 64/13/49 67/14/49 68/15/49
f 65/13/21 68/14/21 69/15/21
f 66/13/6 69/14/6 70/15/6
f 67/15/19 66/16/19 70/14/19
f 69/13/27 67/14/27 70/15/27
f 73/13/50 71/14/50 74/15/50
f 77/15/51 75/16/51 76/14/51
f 72/15/46 75/16/46 71/14/46
f 78/15/52 71/16/52 75/14/52
f 77/13/33 72/14/33 73/15/33
f 77/15/53 80/16/53 81/14/53
f 74/15/54 82/16/54 79/14/54
f 81/15/6 79/16/6 82/14/6
f 77/15/6 83/16/6 84/14/6
f 85/14/46 77/13/46 84/16/46
f 86/14/21 78/13/21 85/16/21
f 81/15/55 86/16/55 83/14/55
f 86/14/21 84/13/21 83/16/21
f 88/14/56 79/13/56 87/16/56
f 89/14/21 74/13/21 88/16/21
f 90/14/6 73/13/6 89/16/6
f 87/14/57 80/13/57 90/16/57
f 90/14/46 88/13/46 87/16/46
f 93/13/58 91/14/58 94/15/58
f 98/13/59 96/14/59 97/15/59
f 91/14/33 96/13/33 95/16/33
f 94/13/60 95/14/60 98/15/60
f 97/13/61 92/14/61 93/15/61
f 97/15/62 94/16/62 98/14/62
f 101/13/61 99/14/61 102/15/61
f 106/13/60 104/14/60 105/15/60
f 100/15/33 103/16/33 99/14/33
f 102/13/58 103/14/58 106/15/58
f 105/13/59 100/14/59 101/15/59
f 106/14/62 101/13/62 102/16/62
f 111/17/33 109/18/33 107/8/33
f 118/17/62 120/18/62 122/8/62
f 116/4/61 107/19/61 108/2/61
f 117/4/21 108/19/21 109/2/21
f 118/4/58 109/19/58 110/2/58
f 119/4/46 110/19/46 111/2/46
f 120/4/60 111/19/60 112/2/60
f 121/4/19 112/19/19 113/2/19
f 122/4/59 113/19/59 114/2/59
f 115/4/6 114/19/6 107/2/6
f 125/13/63 123/14/63 126/15/63
f 130/13/64 128/14/64 129/15/64
f 124/15/60 127/16/60 123/14/60
f 126/13/33 127/14/33 130/15/33
f 125/15/62 128/16/62 124/14/62
f 132/14/65 126/13/65 131/16/65
f 129/15/27 132/16/27 133/14/27
f 130/15/66 133/16/66 134/14/66
f 131/14/44 130/13/44 134/16/44
f 132/15/67 135/16/67 136/14/67
f 137/14/62 132/13/62 136/16/62
f 134/15/68 137/16/68 138/14/68
f 131/15/33 138/16/33 135/14/33
f 136/15/69 139/16/69 140/14/69
f 141/14/70 136/13/70 140/16/70
f 142/14/71 137/13/71 141/16/71
f 135/15/72 142/16/72 139/14/72
f 141/15/6 139/16/6 142/14/6
f 145/13/58 143/14/58 146/15/58
f 150/13/59 148/14/59 149/15/59
f 143/14/33 148/13/33 147/16/33
f 146/13/60 147/14/60 150/15/60
f 149/13/61 144/14/61 145/15/61
f 149/15/62 146/16/62 150/14/62
f 154/15/21 152/16/21 151/14/21
f 158/13/19 156/14/19 157/15/19
f 152/15/27 155/16/27 151/14/27
f 154/13/70 155/14/70 158/15/70
f 157/13/73 152/14/73 153/15/73
f 153/15/74 159/16/74 160/14/74
f 157/15/44 160/16/44 161/14/44
f 162/14/60 157/13/60 161/16/60
f 159/14/27 158/13/27 162/16/27
f 160/15/75 163/16/75 164/14/75
f 165/14/33 160/13/33 164/16/33
f 162/15/76 165/16/76 166/14/76
f 159/15/62 166/16/62 163/14/62
f 168/14/77 163/13/77 167/16/77
f 169/14/78 164/13/78 168/16/78
f 166/15/79 169/16/79 170/14/79
f 163/15/80 170/16/80 167/14/80
f 169/15/6 167/16/6 170/14/6
f 173/13/81 171/14/81 174/15/81
f 178/13/82 176/14/82 177/15/82
f 172/15/58 175/16/58 171/14/58
f 174/13/62 175/14/62 178/15/62
f 173/15/33 176/16/33 172/14/33
f 173/15/83 179/16/83 180/14/83
f 177/15/44 180/16/44 181/14/44
f 182/14/84 177/13/84 181/16/84
f 179/14/27 178/13/27 182/16/27
f 180/15/75 183/16/75 184/14/75
f 185/14/33 180/13/33 184/16/33
f 182/15/76 185/16/76 186/14/76
f 179/15/62 186/16/62 183/14/62
f 188/14/77 183/13/77 187/16/77
f 189/14/78 184/13/78 188/16/78
f 186/15/79 189/16/79 190/14/79
f 183/15/80 190/16/80 187/14/80
f 189/15/6 187/16/6 190/14/6
f 3/1/85 9/4/85 8/2/85
f 10/1/86 9/4/86 3/2/86
f 11/1/3 10/4/3 4/2/3
f 11/4/87 5/2/87 6/3/87
f 7/1/88 12/4/88 6/2/88
f 8/1/6 7/4/6 1/2/6
f 2/5/7 1/8/7 13/6/7
f 3/5/89 2/8/89 14/6/89
f 16/7/90 4/5/90 3/8/90
f 5/5/10 4/8/10 16/6/10
f 6/5/91 5/8/91 17/6/91
f 13/7/92 1/5/92 6/8/92
f 7/5/13 8/8/13 19/6/13
f 12/5/93 7/8/93 20/6/93
f 22/7/94 11/5/94 12/8/94
f 10/5/16 11/8/16 22/6/16
f 9/5/95 10/8/95 23/6/95
f 19/7/96 8/5/96 9/8/96
f 20/5/6 19/8/6 25/6/6
f 27/7/19 21/5/19 20/8/19
f 22/5/19 21/8/19 27/6/19
f 29/7/97 23/5/97 22/8/97
f 30/7/21 24/5/21 23/8/21
f 19/5/21 24/8/21 30/6/21
f 32/7/98 26/5/98 25/8/98
f 33/7/19 27/5/19 26/8/19
f 28/5/24 27/8/24 33/6/24
f 35/7/21 29/5/21 28/8/21
f 36/7/25 30/5/25 29/8/25
f 25/5/21 30/8/21 36/6/21
f 36/9/21 35/12/21 34/20/21
f 36/9/99 34/20/99 33/10/99
f 32/11/21 31/6/21 36/9/21
f 14/5/28 13/8/28 37/6/28
f 15/5/100 14/8/100 38/6/100
f 16/5/101 15/8/101 39/6/101
f 41/7/44 17/5/44 16/8/44
f 42/7/102 18/5/102 17/8/102
f 37/7/103 13/5/103 18/8/103
f 39/10/33 38/11/33 37/6/33
f 39/10/33 37/6/33 42/9/33
f 41/12/21 40/20/21 39/10/21
f 50/13/19 47/16/19 48/14/19
f 43/14/34 44/15/34 48/13/34
f 50/15/35 46/13/35 43/16/35
f 49/13/104 48/16/104 44/14/104
f 49/15/37 45/13/37 46/16/37
f 52/15/38 44/13/38 43/16/38
f 53/15/105 45/13/105 44/16/105
f 46/13/40 45/16/40 53/14/40
f 43/13/41 46/16/41 54/14/41
f 54/15/21 53/13/21 52/16/21
f 58/15/106 57/13/106 56/16/106
f 62/13/107 59/16/107 60/14/107
f 56/15/44 60/13/44 59/16/44
f 61/13/45 60/16/45 56/14/45
f 61/15/6 57/13/6 58/16/6
f 55/13/46 59/16/46 63/14/46
f 65/15/47 58/13/47 55/16/47
f 62/13/6 58/16/6 65/14/6
f 59/13/48 62/16/48 66/14/48
f 64/13/49 63/16/49 67/14/49
f 65/13/108 64/16/108 68/14/108
f 66/13/6 65/16/6 69/14/6
f 67/15/109 63/13/109 66/16/109
f 69/13/27 68/16/27 67/14/27
f 73/13/50 72/16/50 71/14/50
f 77/15/51 78/13/51 75/16/51
f 72/15/46 76/13/46 75/16/46
f 78/15/52 74/13/52 71/16/52
f 77/13/33 76/16/33 72/14/33
f 77/15/53 73/13/53 80/16/53
f 74/15/54 78/13/54 82/16/54
f 81/15/6 80/13/6 79/16/6
f 77/15/110 81/13/110 83/16/110
f 85/14/46 78/15/46 77/13/46
f 86/14/111 82/15/111 78/13/111
f 81/15/55 82/13/55 86/16/55
f 86/14/21 85/15/21 84/13/21
f 88/14/21 74/15/21 79/13/21
f 89/14/46 73/15/46 74/13/46
f 90/14/112 80/15/112 73/13/112
f 87/14/57 79/15/57 80/13/57
f 90/14/46 89/15/46 88/13/46
f 93/13/58 92/16/58 91/14/58
f 98/13/59 95/16/59 96/14/59
f 91/14/33 92/15/33 96/13/33
f 94/13/60 91/16/60 95/14/60
f 97/13/61 96/16/61 92/14/61
f 97/15/62 93/13/62 94/16/62
f 101/13/61 100/16/61 99/14/61
f 106/13/60 103/16/60 104/14/60
f 100/15/33 104/13/33 103/16/33
f 102/13/58 99/16/58 103/14/58
f 105/13/59 104/16/59 100/14/59
f 106/14/62 105/15/62 101/13/62
f 107/8/33 114/21/33 113/22/33
f 113/22/33 112/23/33 111/17/33
f 111/17/33 110/24/33 109/18/33
f 109/18/33 108/25/33 107/8/33
f 107/8/33 113/22/33 111/17/33
f 122/8/62 115/21/62 116/22/62
f 116/22/62 117/23/62 118/17/62
f 118/17/62 119/24/62 120/18/62
f 120/18/62 121/25/62 122/8/62
f 122/8/62 116/22/62 118/17/62
f 116/4/61 115/26/61 107/19/61
f 117/4/21 116/26/21 108/19/21
f 118/4/58 117/26/58 109/19/58
f 119/4/46 118/26/46 110/19/46
f 120/4/60 119/26/60 111/19/60
f 121/4/19 120/26/19 112/19/19
f 122/4/59 121/26/59 113/19/59
f 115/4/6 122/26/6 114/19/6
f 125/13/63 124/16/63 123/14/63
f 130/13/64 127/16/64 128/14/64
f 124/15/60 128/13/60 127/16/60
f 126/13/33 123/16/33 127/14/33
f 125/15/62 129/13/62 128/16/62
f 132/14/65 125/15/65 126/13/65
f 129/15/27 125/13/27 132/16/27
f 130/15/66 129/13/66 133/16/66
f 131/14/44 126/15/44 130/13/44
f 132/15/67 131/13/67 135/16/67
f 137/14/62 133/15/62 132/13/62
f 134/15/68 133/13/68 137/16/68
f 131/15/33 134/13/33 138/16/33
f 136/15/69 135/13/69 139/16/69
f 141/14/70 137/15/70 136/13/70
f 142/14/71 138/15/71 137/13/71
f 135/15/72 138/13/72 142/16/72
f 141/15/6 140/13/6 139/16/6
f 145/13/58 144/16/58 143/14/58
f 150/13/59 147/16/59 148/14/59
f 143/14/33 144/15/33 148/13/33
f 146/13/60 143/16/60 147/14/60
f 149/13/61 148/16/61 144/14/61
f 149/15/62 145/13/62 146/16/62
f 154/15/21 153/13/21 152/16/21
f 158/13/19 155/16/19 156/14/19
f 152/15/27 156/13/27 155/16/27
f 154/13/70 151/16/70 155/14/70
f 157/13/73 156/16/73 152/14/73
f 153/15/74 154/13/74 159/16/74
f 157/15/44 153/13/44 160/16/44
f 162/14/60 158/15/60 157/13/60
f 159/14/27 154/15/27 158/13/27
f 160/15/75 159/13/75 163/16/75
f 165/14/33 161/15/33 160/13/33
f 162/15/76 161/13/76 165/16/76
f 159/15/62 162/13/62 166/16/62
f 168/14/77 164/15/77 163/13/77
f 169/14/78 165/15/78 164/13/78
f 166/15/79 165/13/79 169/16/79
f 163/15/80 166/13/80 170/16/80
f 169/15/6 168/13/6 167/16/6
f 173/13/81 172/16/81 171/14/81
f 178/13/82 175/16/82 176/14/82
f 172/15/58 176/13/58 175/16/58
f 174/13/62 171/16/62 175/14/62
f 173/15/33 177/13/33 176/16/33
f 173/15/83 174/13/83 179/16/83
f 177/15/44 173/13/44 180/16/44
f 182/14/84 178/15/84 177/13/84
f 179/14/27 174/15/27 178/13/27
f 180/15/75 179/13/75 183/16/75
f 185/14/33 181/15/33 180/13/33
f 182/15/76 181/13/76 185/16/76
f 179/15/62 182/13/62 186/16/62
f 188/14/77 184/15/77 183/13/77
f 189/14/78 185/15/78 184/13/78
f 186/15/79 185/13/79 189/16/79
f 183/15/80 186/13/80 190/16/80
f 189/15/6 188/13/6 187/16/6
